<?xml version="1.0" encoding="utf-8"?>
<!-- Generator: Adobe Illustrator 25.4.0, SVG Export Plug-In . SVG Version: 6.00 Build 0)  -->
<svg version="1.1" id="Layer_1" xmlns="http://www.w3.org/2000/svg" xmlns:xlink="http://www.w3.org/1999/xlink" x="0px" y="0px"
	 viewBox="0 0 500 500" style="enable-background:new 0 0 500 500;" xml:space="preserve">
<style type="text/css">
	.st0{fill:#800000;}
	.st1{fill:#FFFFFF;}
</style>
<g id="XMLID_00000180330329109591130140000005097315921858893449_">
	<g>
		<path class="st0" d="M500,110v281.4c0,59.7-48.9,108.6-108.6,108.6H110C50.3,500,1.4,451.1,1.4,391.4V110
			C1.4,50.3,50.3,1.4,110,1.4h281.4C451.1,1.4,500,50.3,500,110z"/>
	</g>
</g>
<path class="st1" d="M174.6,280.2c0,33.9-0.1,67.9-0.1,101.8c0,18.6-8.2,33-22.6,44.3c-27.1,21.1-68.2,22-96.7,2.3
	c-33.6-23.4-33.8-66.8,0-89.9c22.3-15.2,46.8-17.5,72.5-10.4c2.8,0.8,5.4,1.7,7.9,2.5c1.1-0.3,1.4-0.3,2.8-0.6V281"/>
<path class="st1" d="M278.7,345h148.1c11,0,20.1-14.6,20.1-32.5V86.7c0-17.9-9-32.5-20.1-32.5H276.4c-11,0-20.1,14.6-20.1,32.5
	v225.8c0,17.9,9,32.5,20.1,32.5H278.7"/>
<path class="st1" d="M160.8,336.3H309c11,0,20.1-14.2,20.1-31.5V85.7c0-17.3-9-31.5-20.1-31.5H158.5c-11,0-20.1,14.2-20.1,31.5
	v219.1c0,17.3,9,31.5,20.1,31.5H160.8"/>
<g>
	<path class="st0" d="M422.4,157.4c-0.5-20.3-9.6-35.9-24.6-45.3c-7-4.4-15.4-7.5-24.8-9c-1.9-0.3-3.8-1.1-5.7-1.6H218.9
		c-3.1,0.6-6.1,1.4-9.2,2c-25.7,4.5-44,24-46.7,49.9c-0.4,3.7-1.1,7.3-1.6,11v132.8c0.7,5.1,1.3,10.3,2.2,15.5
		c2.9,17.3,12.9,31.5,26.9,39.6c8.1,4.7,17.5,7.4,27.7,7.5c25.3,0.2,50.7,0.3,76,0.3c24.3,0,48.7-0.1,73-0.3
		c30.6-0.3,54.5-23.1,55.3-54.9C423.6,255.8,423.5,206.6,422.4,157.4z M352,127.2c-0.1-0.1-0.2-0.1-0.3-0.2
		c-8.3-5.2-14.9-2.9-18.9,5.8c-1,2.1-3.6,3.6-5.6,5.2c-0.2,0.1-0.3,0.3-0.5,0.4c-0.6-0.9-1.3-1.8-1.9-2.7
		c4.9-14,20.8-19.5,32.8-11.8c0.3,0.2,0.6,0.4,0.9,0.6c6.3,4.5,13,8.5,20,13.9c-5.6-1.6-11.3-2.7-16.7-4.9c-0.7-0.3-1.3-0.6-2-1
		C357.1,131.2,354.6,129,352,127.2z M231.9,290c-0.1-0.9-1-1.8-2.3-2.6c-1.3-0.8-2.8-1.6-4-2.1c-2-1-4.2-1.7-6.4-2.4
		c-1.5-0.5-3-0.9-4.5-1.5v40.5h-13.1v-69.3H215c0,0.3-0.1,0.5-0.1,0.8c-0.5,2.7-1.2,5.5-1.2,8.3c-0.3,11.1-0.3,15,4.5,17.5h0.1
		c0.5,0.3,1.1,0.5,1.8,0.8c2.5,1,6.1,1.8,10.9,3v-30.6h13.2V322h-12C232.2,311.3,232.5,300.6,231.9,290z M254,252.3h13.3v69.5H254
		V252.3z M379.4,262.4c-1.1,1.1-2.1,2.2-3.2,3.1c-2.4,2-4.6,4.7-7.4,5.4h-0.1c-1.3-0.1-5.1-4.8-4.7-5.4c1.8-2.8,4.4-6,7.3-6.8
		c1.4-0.4,3.3,0.7,5.1,1.8l0.1,0.1c0.8,0.5,1.6,1,2.3,1.4c0.1,0,0.1,0.1,0.1,0.1C379.1,262.2,379.3,262.3,379.4,262.4L379.4,262.4z
		 M381.2,287.2c-1.2,0.7-2.4,1.4-3.6,2.1c-3.3,1.9-6.6,3.9-10,5.9c0.5,0.2,1.1,0.5,1.6,0.7h0.1c0,0.1-0.1,0.1-0.1,0.2
		c-1.5,4-4.3,8.1-4.1,12.1c0.3,4.3,3.5,8.3,5.6,12.8h-28.8c4.4-10.2,4.7-20.7-1.7-30c-0.4-0.6-1-1.2-1.7-1.6
		c-2.7-1.9-6.9-2.8-11-4.8v36.6h-13.1V252h13.2v30.6c0.5-0.1,0.9-0.2,1.4-0.3c13.6-3.4,19.8-18.2,11.7-30.8h17.5
		c-0.1,0.3-0.1,0.5-0.1,0.8c-2,12.4-0.7,25.8-14.8,30.8c5.1,4.2,9.7,8.1,14.4,11.9c-0.3,0.6-0.6,1.2-0.9,1.7
		c0.4-0.6,0.8-1.2,1.2-1.9c0.6-1,1-1.9,0.8-2.6c-3.3-8.2,1.5-11.7,7.7-14.6c2.4-1.1,4.8-1.9,7.3-2.8c1.7-0.6,3.1-1.4,4.2-2.3
		c2.7-2.1,3.7-5,2.3-8.9c-0.1-0.4-0.3-0.7-0.4-1.1c-0.1-0.1-0.1-0.3-0.2-0.5l-0.1,0.1c0.8-3,1.5-6,2.6-10.2h12.2v69.2h-13v-33.9
		H381.2z M408.9,254.7c-15.1-9.1-31.6-11-48.9-10.4c-18.2,0.5-36.5,0.1-55.9,0.1c0,6.8,0,13.1,0,19.4c0,11.6,0.4,23.3,0.1,34.9
		c-0.5,18.5,0.4,36.7,11.8,53.1c-14.8-5.2-29-6.2-45.3,0.7c-0.8,0.4-1.6,0.7-2.4,1.1c21.2-35.5,9.6-72.3,14-108.6
		c0.1-0.3,0.1-0.5,0.1-0.8c-9.4,0-17.1,0-24.9,0c-10.7,0-21.5,0.5-32.3,0.1c-17.2-0.6-33.7,1-49.3,10.1c-0.7,0.4-1.4,0.8-2.1,1.3
		c6-15.5,6.3-30.3-0.6-44.9c1.2-0.3,1.9-0.8,2.2-0.6c0.5,0.3,0.9,0.6,1.4,0.8c0.1,0.1,0.3,0.2,0.4,0.3c0.6,0.4,1.2,0.7,1.8,1
		c8.3,4.6,17.1,7,26.2,8.2l1-7.4v-69.2h6.1v-6.2c-0.6,0-1.4-0.1-2.2-0.5c-0.4-0.2-0.9-0.4-1.4-0.7c3.2-14.4,19.7-20.2,32.3-12.5
		c0.1,0.1,0.3,0.1,0.4,0.2c0.6,0.3,1.1,0.7,1.6,1.1c3.6,2.7,7.5,5.1,11.4,7.4c1.2,0.8,2.5,1.5,3.7,2.2c1.1,0.7,2.2,1.4,3.3,2.1
		c0,0.6,0.1,1.3,0.1,2c-0.6-0.2-1.2-0.5-1.9-0.7l-2.5,6.9c0.5,0.2,0.9,0.5,1.4,0.8c0.2,0.1,0.4,0.3,0.6,0.4c2.8,1.9,5.4,4.8,7.3,8.7
		c1.6,3.2,3,6.5,4.7,10h-15.8c0.5-2.1,2-4.7,1.3-6.4c-1.5-3.7-3.8-7.2-5.9-10.7c-0.3-0.5-0.5-0.9-0.8-1.4c-2.7,3.4-6.5,6.5-7.7,10.4
		c-5.5,17.8-1.5,35.5,1.6,53.8l1.1-0.7c11.1-7.1,14.2-15.6,10.5-26.3h15.2c-0.1,0.3-0.1,0.5-0.2,0.8c-2.3,12-6.3,22.6-19,27.3
		c-2.3,0.9-4.4,1.6-6.2,1.6l0.1,7.6h1.3c11.5-0.1,23.2,0.1,35.4,0.1c0-5.8,0-11.2,0-16.6c-0.1-12.2-0.3-24.4-0.1-36.7
		c0.2-18.7-0.1-37.4-12-54.2c15.5,5.5,30.6,6.5,47.6-1.8c-0.4,0.6-0.8,1.3-1.1,1.9c-5.6,9.8-8.7,19.8-10.2,29.9l1.5,0.2l1.1,0.2
		h12.3c0.1,0.3,0.3,0.5,0.4,0.8c4.3,9.1,8.4,17.6,12.7,26.5c0.2-0.3,0.4-0.6,0.6-0.8c1.7-2.3,3.3-4.5,5-6.8
		c5.5-7.4,10.7-14.5,16-21.7c1,0.5,2,0.9,2.9,1.4c0,0.1,0,0.1,0,0.2c0.5,2.2,0.8,4.5,1.4,7.2c0.3-0.3,0.6-0.7,1-1
		c6-5.8,13.1-10.1,20.7-5.1l0,0c0.2,0.1,0.4,0.2,0.5,0.4c6.1,4.4,10.2,11.7,16.2,19h-18.1c0.5-1.5,1.7-3.2,1.3-4.3
		c-1.7-4.3-3.7-8.6-5.6-12.8c-0.3-0.5-0.5-1.1-0.7-1.6c-2.9,3.9-8.1,7.7-8.3,11.8c-0.9,17.1-0.4,34.2-0.4,52.9
		c0.1,0.1,0.2,0.2,0.3,0.3c0.4-0.2,0.7-0.4,1.1-0.6c12.7-6.9,16.1-15.9,11.7-26.5h16c-0.1,0.3-0.1,0.5-0.2,0.8c-0.6,2.4-0.8,5-2,6.9
		c-4.2,6.3-8,13.6-13.8,18.1c-3.3,2.6-5.8,3.8-8,3.8l1,7.3c0.4-0.1,0.8-0.1,1.2-0.2c12.7-1.6,25.2-5.4,37.1-7.9
		c-0.1,0.4-0.1,0.8-0.2,1.2c-0.9,4.8-2.8,11.7-2.8,18.6c0,7.6,2.1,15.2,3.3,22.9c0.3-0.1-0.4,0.4-0.7,0.1
		C409.7,255.2,409.3,254.9,408.9,254.7z"/>
	<g id="XMLID_00000155132672218252901170000012834321112049779381_">
		<g>
			<path class="st0" d="M422.4,157.4c1.1,49.1,1.2,98.3,0,147.4c-0.8,31.8-24.6,54.6-55.3,54.9c-16.6,0.1-33.2,0.2-49.8,0.3v-7.4
				c-11.4-16.4-12.3-34.5-11.8-53.1c0.3-11.6,0-23.3-0.1-34.9c0-6.3,0-12.6,0-19.5c8,0,15.9,0.1,23.6,0.1l-0.1,7.6h-13.2v69.1h13.1
				v-36.5c3.4,1.7,7,2.6,9.7,4c1.3,0.7,2.3,1.4,3,2.5c6.2,9.1,6,19.3,2,29.2c-0.1,0.3-0.2,0.5-0.3,0.8H372
				c-2.1-4.5-5.3-8.5-5.6-12.8c-0.3-4,2.7-8.2,4.2-12.3c-0.5-0.2-1-0.4-1.4-0.6c-0.1,0-0.1-0.1-0.2-0.1c0.1-0.1,0.1-0.1,0.2-0.1
				c3.3-2,6.6-3.9,9.8-5.8c0.7-0.5,1.5-0.9,2.2-1.3c0.5-0.3,0.9-0.5,1.4-0.8v34h13v-69.2l0.7-3.8c4.3,1.4,8.5,3.2,12.6,5.6
				c0.4,0.2,0.8,0.5,1.3,0.8s0.9,0.5,1.4,0.8c0.3,0.2,1-0.2,0.7-0.1c-1.2-7.7-3.3-15.3-3.3-22.9c0-7.5,2.2-14.9,3.1-19.8
				c-0.5,0.1-1,0.2-1.6,0.3c-11.7,2.6-24.1,6.3-36.7,7.8l-0.1-1l-0.9-6.3c2.1,0,4.7-1.3,8-3.8c5.8-4.5,9.5-11.8,13.8-18.1
				c1.4-2.1,1.5-5.1,2.2-7.7h-16c4.5,10.9,0.8,20.1-12.8,27.1c-0.1-0.1-0.2-0.3-0.3-0.3v-1c0-18.4-0.5-35.1,0.4-51.9
				c0.2-3.7,4.7-7.3,7.7-11c0.2-0.3,0.4-0.5,0.6-0.8c2.1,4.8,4.4,9.5,6.3,14.4c0.3,0.9-0.5,2.2-1,3.5c-0.1,0.3-0.3,0.5-0.3,0.8h18.1
				c-6-7.3-10.1-14.6-16.2-19c-0.6-0.5-1.3-0.8-1.9-1.2l0,0c-1.6-0.8-3.2-1.3-4.8-1.4c-5.7-0.4-11,3.6-15.5,8.3
				c-0.1-0.6-0.3-1.2-0.4-1.8c-0.4-2-0.7-3.8-1.1-5.6c-0.5-0.2-0.9-0.4-1.3-0.6c-0.5-0.3-1.1-0.5-1.6-0.8
				c-5.3,7.1-10.5,14.2-15.9,21.6c0,0-0.1,0-0.1,0.1c-1.9,2.5-3.7,5-5.6,7.6c-0.3-0.5-0.5-1.1-0.8-1.6c-4.1-8.6-8.1-16.9-12.3-25.7
				h-12.3l-1-0.1l-1.6-0.3c0-0.2,0.1-0.4,0.1-0.6c1.7-10.5,5-20.9,11.2-31.2c-0.8,0.4-1.7,0.8-2.5,1.2c-16,7.1-30.3,5.9-45.1,0.7
				c11.8,16.8,12.1,35.5,12,54.2c-0.1,12.2,0.1,24.4,0.1,36.7c0,5.2,0,10.3,0,15.8v0.8c-12.6,0-24.8-0.1-36.7-0.1v-0.8v-6.8
				c1.9,0,3.9-0.7,6.2-1.6c13-4.9,16.9-15.8,19.2-28.2h-15.2c3.8,11,0.5,19.7-11.6,27c-0.1-0.5-0.2-1-0.3-1.5
				c-3.1-17.8-6.7-35-1.4-52.4c1.1-3.7,4.6-6.6,7.2-9.8c0.2-0.2,0.4-0.4,0.5-0.6c2.3,4.1,5,7.9,6.7,12.2c0.6,1.5-0.5,3.6-1,5.6
				c-0.1,0.3-0.2,0.6-0.2,0.8h15.8c-1.7-3.5-3.1-6.8-4.7-10c-2.2-4.5-5.2-7.6-8.6-9.5c-0.2-0.1-0.4-0.2-0.6-0.3v-0.1l2.5-6.9
				c0.6,0.3,1.3,0.5,1.9,0.7c0-0.7,0-1.3-0.1-2c-1.5-1-3.1-1.9-4.7-2.8c-1.2-0.7-2.5-1.5-3.7-2.2c-3.4-2.1-6.9-4.3-10.1-6.7
				c-1-0.7-1.9-1.4-3-1.9c-0.1-0.1-0.2-0.1-0.4-0.2c-12.4-6.5-27.7-0.6-30.9,13.2c0,0.1,0,0.1,0,0.1c0.8,0.5,1.6,0.8,2.3,1
				c0.5,0.1,0.9,0.2,1.3,0.2v6.2h-6.1v69.2l-0.9,6.7l-0.1,0.6c-9.6-1.2-18.9-3.9-27.6-9c-0.6-0.3-1.2-0.7-1.8-1
				c-0.1-0.1-0.3-0.1-0.4-0.3c-0.3-0.2-1,0.3-2.2,0.6c6.6,13.9,6.6,28.1,1.4,42.8c-0.3,0.7-0.5,1.4-0.8,2.1
				c9.8-6.2,20-9.4,30.5-10.7v7.6H203V323h13.1v-40.5c1.6,0.5,3.1,1,4.5,1.5c2.3,0.7,4.4,1.4,6.4,2.4c0.8,0.4,1.7,0.8,2.6,1.4
				c1.8,1,3.5,2.3,3.6,3.4c0.5,10.3,0.3,20.8,0.3,31.3v0.8h12.1v-69.6h-9.8v-8.1c7.6,0,15.3-0.3,23-0.3c7.4,0,14.7,0,23.5,0h1.5
				c-4.6,35.9,6.9,72.3-13,107.5c-0.3,0.6-0.7,1.3-1.1,1.9v5.6c-17.1,0-34.3-0.1-51.5-0.3c-10.2-0.1-19.6-2.8-27.7-7.5
				c-13.3-8.3-22.7-22.1-25.5-38.8c-0.9-5.1-1.5-10.3-2.2-15.4V165.2c0.6-3.6,1.2-7.3,1.6-11c2.8-25.9,21.1-45.4,46.7-49.9
				c3.1-0.6,6.2-1.3,9.2-2h148.4c1.9,0.5,3.7,1.3,5.7,1.6c8.8,1.4,16.7,4.2,23.4,8.2C412.8,121.5,421.9,137.1,422.4,157.4z
				 M363.2,134.5c5.3,2.2,11.1,3.3,16.7,4.9c-7-5.4-13.6-9.4-20-13.9c-0.7-0.5-1.5-1-2.3-1.4c-11.8-6.4-26.7-0.9-31.5,12.6
				c0.4,0.5,0.7,1,1.1,1.5c0.3,0.4,0.6,0.8,0.9,1.2c2.1-1.9,5-3.3,6-5.6c3.8-8.3,10-10.7,17.8-6.5c0.4,0.2,0.7,0.4,1.1,0.6
				c2.3,1.5,4.5,3.3,6.8,4.8C360.9,133.4,362,134,363.2,134.5z M268.6,322.5V253h-13.3v69.5H268.6z"/>
			<path class="st0" d="M396.3,249.1l-0.7,3.8h-12.2c-1.1,4.2-1.8,7.2-2.6,10.2l0.1-0.1c2,4.3,1.4,7.5-0.9,9.8
				c-0.2,0.2-0.5,0.5-0.8,0.7c-1.1,0.9-2.5,1.6-4.2,2.3c-2.5,1-4.9,1.8-7.3,2.9c-6.2,2.9-11,6.4-7.7,14.6c0.4,1.1-1,2.9-1.9,4.5
				c0.3-0.6,0.6-1.2,0.9-1.7c-0.4-0.3-0.7-0.6-1.1-0.9c-4.3-3.5-8.6-7.1-13.3-11c14.4-5.2,12.7-19,14.9-31.6H342v-7
				c6.5,0,12.9-0.1,19.3-0.3C373.4,244.6,385.1,245.5,396.3,249.1z M380.2,263.7c0.2-0.2,0.4-0.4,0.6-0.6c-0.3-0.2-0.6-0.3-1-0.5
				c-0.1-0.1-0.3-0.1-0.4-0.2s-0.3-0.2-0.4-0.3c0,0-0.1,0-0.1-0.1c-0.8-0.5-1.6-1-2.3-1.4c0,0-0.1,0-0.1-0.1c-1.4-0.8-2.7-1.3-3.7-1
				c-2.9,0.8-5.6,4-7.3,6.8c-0.3,0.5,1.8,3.2,3.4,4.6l0,0c0.6,0.6,1.1,0.9,1.4,0.8c2.7-0.8,5-3.4,7.4-5.4
				C378.5,265.5,379.3,264.6,380.2,263.7z"/>
			<path class="st0" d="M342.1,252.3c6.5,10.2,3.7,21.7-4.7,27.6c-2.4,1.7-5.2,2.9-8.4,3.5v-30.6l0.1-7.6c4.4,0,8.7,0.1,13,0.1
				V252.3z"/>
			<path class="st0" d="M317.3,352.5v7.4c-7.7,0.1-15.5,0.1-23.2,0.1c-8.2,0-16.4,0-24.6-0.1v-5.6
				C286.8,346.2,301.7,347.1,317.3,352.5z"/>
			<path class="st0" d="M235.8,245.2v8.1h-3.3v30.5c-4.8-1.2-8.3-2-10.9-3c-0.5-0.2-1-0.4-1.4-0.6c-0.6-0.3-1.2-0.6-1.7-1h-0.1
				c-3.5-2.6-3.4-6.8-3.2-16.7c0.1-3.1,0.9-6.2,1.3-9.1h-10.9v-7.6c6.8-0.9,13.8-1,20.9-0.7C229.6,245.1,232.7,245.2,235.8,245.2z"
				/>
		</g>
	</g>
	<path class="st1" d="M410.8,255.3c0.3-0.1-0.4,0.3-0.7,0.1c-15.4-9.7-32.4-11.8-50.2-11.2c-18.2,0.5-36.5,0.1-55.9,0.1
		c0,6.8,0,13.1,0,19.4c0,11.6,0.4,23.3,0.1,34.9c-0.5,18.5,0.4,36.7,11.8,53.1c-15.5-5.5-30.4-6.3-47.7,1.8
		c21.4-35.8,9.4-72.9,14.1-109.4h7.1c0,0.8,0,1.6,0,2.4c0,18,0.1,36.1,0,54.1c0,4.5,0.7,7.4,6.9,4.7c0-22.8,0-45.7,0-69.3
		c23.9,0,47.1,0,70.2,0c0.4-1,0.7-2.1,1.1-3.1c-2.4-1.1-4.8-3.2-7.3-3.2c-15.4-0.3-30.8-0.1-46.2-0.1c-6,0-11.9,0-18.7,0
		c0-2.7,0-5.3,0-8h7.6c5.3,0,8.9,0,12.6,0c18-0.1,36.2,0.9,54.1-0.6c0.9-0.1,1.7-0.2,2.7-0.3c13.2-1.5,26.1-5.5,38.3-8.1
		c-0.8,4.9-3,12.3-3.1,19.8C407.5,240,409.7,247.6,410.8,255.3z"/>
	<path class="st1" d="M397.9,164.4c-7.4,0-12.5,0-18.1,0c0.5-1.5,1.7-3.2,1.3-4.3c-1.9-4.9-4.2-9.6-6.3-14.4
		c-2.9,3.9-8.1,7.7-8.3,11.8c-0.9,17.1-0.4,34.2-0.4,52.9c-1.2-1.4-2.3-3.3-3.5-5.7c-1.3-2.6-2.6-5.2-4.3-7.5
		c-9-12.3-8-25.5-2.8-38.9c-5.3-0.1-10.3,3.1-13.5,7.4l-3-1.6c5.5-7.4,10.7-14.5,16-21.6c1,0.5,2,0.9,2.9,1.4
		c0.5,2.3,0.9,4.6,1.4,7.4c6.4-6.5,14-11.7,22.2-5.7C387.8,149.8,391.8,157.1,397.9,164.4z"/>
	<path class="st1" d="M379.2,183.6c5.6,0,11,0,16,0c-0.7,2.6-0.8,5.6-2.2,7.7c-4.2,6.3-8,13.6-13.8,18.1c-3.3,2.6-5.8,3.8-8,3.8
		c-1.8,0-3.4-0.9-4.9-2.6C380,203.7,383.7,194.6,379.2,183.6z"/>
	<path class="st1" d="M394.2,252.1c0,22.9,0,45.9,0,69.2c-3.9,0-8.4,0-13,0c0-11.2,0-22.5,0-34c-1.2,0.7-2.4,1.4-3.6,2.1l-1.8-3
		c4.5-2.3,6.8-6.1,6.2-13.4l-4.2-0.3c3-2.4,3.9-5.7,1.7-10.5l-0.1,0.1c0.8-3,1.5-6,2.6-10.2C384.4,252.1,389.5,252.1,394.2,252.1z"
		/>
	<path class="st0" d="M382,273c0.7,7.2-1.6,11.1-6.2,13.4c-1.8,0.9-4,1.6-6.5,2.1C369.6,279.4,377.5,278.4,382,273z"/>
	<path class="st1" d="M356.8,296.8c0.9-1.6,2.3-3.4,1.9-4.4c-3.3-8.2,1.5-11.7,7.7-14.6c2.4-1.1,4.9-1.9,7.3-2.9
		c1.7-0.6,3.1-1.4,4.2-2.3l4.2,0.3c-4.5,5.5-12.4,6.5-12.7,15.5c2.5-0.5,4.7-1.2,6.5-2.1l1.8,3c-3.3,2-6.6,3.9-10,6
		c0.6,0.2,1.1,0.5,1.7,0.7c-1.5,4.1-4.4,8.3-4.2,12.3c0.3,4.3,3.5,8.3,5.6,12.8c-9.1,0-19,0-28.8,0c4.4-10.2,4.7-20.7-1.7-30
		c-2.1-3.1-7.6-3.9-12.7-6.4v-2c14.5-2.8,21.4-18.1,13.1-31.1c3.3,0,6.1,0,8.8,0c2.9,0,5.8,0,8.7,0c-2.2,12.6-0.5,26.5-14.9,31.6
		c5.1,4.2,9.7,8.1,14.4,11.9C357.4,295.7,357.1,296.3,356.8,296.8z"/>
	<path class="st1" d="M379.4,262.3c-1.1,1.1-2.1,2.2-3.2,3.2c-2.4,2-4.6,4.6-7.4,5.4c-1.1,0.3-5.2-4.8-4.8-5.4
		c1.8-2.8,4.4-6,7.3-6.8C373.6,258.1,376.7,261,379.4,262.3z"/>
	<path class="st0" d="M371.3,213.3l1,7.3c-0.9,0.1-1.8,0.2-2.7,0.3c-17.9,1.6-36,0.6-54.1,0.6c-3.6,0-7.3,0-12.6,0
		c0.4-2.9,0.7-5.8,0.9-8.7l5.2,0.4c2.2,0,6.5,0,11.5,0c-5.2-3.8-5-6.1,0.2-8.8c2.5-1.3,4.6-4.5,5.7-7.4c1.3-3.1,1.4-6.8,2-10.2
		c0.8,0.1,1.7,0.1,2.5,0.2c4.4,8.5,8.8,17,13.7,26.4c2.6,0,7.5,0,11.4,0c-5.6-10.3-11.3-20.9-16.9-31.5c-2.6-4.9-1-11.5,2.8-16.5
		c3.2-4.3,8.2-7.5,13.5-7.4c-5.2,13.5-6.3,26.6,2.8,38.9c1.7,2.3,3,5,4.3,7.5c1.2,2.4,2.3,4.3,3.5,5.7c0,0.2,0,0.3,0,0.5
		c0.1,0,0.2-0.1,0.3-0.1C367.9,212.4,369.5,213.3,371.3,213.3z"/>
	<path class="st0" d="M367.6,232.9c-0.4,1-0.7,2.1-1.1,3.1c-23.1,0-46.3,0-70.2,0c0,23.6,0,46.5,0,69.3c-6.2,2.7-6.9-0.2-6.9-4.7
		c0.1-18,0-36.1,0-54.1c0-0.8,0-1.6,0-2.4c0-2.4,0-4.9,0-8c-18.9,0-36.8,0-54.8,0c-3.5,0-7,0.3-10.4-0.1c-1.6-0.2-3-1.8-4.4-2.8
		c1.5-1.2,3-3.2,4.7-3.4c3.7-0.5,7.5-0.2,11.3-0.2c17.4,0,34.8,0,53.7,0c0-2.9,0-5.6,0-8.3c0-3.8,0-7.4,0-11
		c0-14.8-0.1-29.7,0.1-44.5c0.1-2.4,1.9-4.7,2.8-7.1c1,0.3,2.1,0.6,3.1,0.9c0,20.3,0,40.6,0,61.9c0,2.7,0,5.3,0,8
		c6.7,0,12.7,0,18.7,0c15.4,0,30.8-0.2,46.2,0.1C362.8,229.7,365.1,231.8,367.6,232.9z"/>
	<path class="st0" d="M366.2,210.4c0.1,0.1,0.2,0.2,0.3,0.3c-0.1,0-0.2,0.1-0.3,0.1C366.2,210.7,366.2,210.5,366.2,210.4z"/>
	<path class="st1" d="M378.5,138.5c-5.6-1.6-11.3-2.7-16.7-4.9c-3.7-1.5-6.7-4.4-10.1-6.6c-8.3-5.2-14.9-2.9-18.9,5.8
		c-1.1,2.3-4,3.8-6,5.6c-0.6-0.9-1.3-1.8-2-2.7c5.1-14.3,21.6-19.7,33.7-11.2C364.9,129.1,371.6,133.2,378.5,138.5z"/>
	<path class="st1" d="M356.3,213.5c-3.9,0-8.8,0-11.4,0c-4.9-9.4-9.3-17.9-13.7-26.4c-0.9-0.1-1.7-0.1-2.5-0.2
		c-0.6,3.4-0.7,7.1-2,10.2c-1.2,2.8-3.2,6-5.7,7.4c-5.2,2.7-5.4,5-0.2,8.8c-5,0-9.3,0-11.5,0c1.5-4.8,2.8-9.8,4.7-14.4
		c1.1-2.6,3.1-5.4,5.4-6.7c7.5-4.3,9.6-9.3,5.6-16.8c-5.5-10.4-11.2-20.7-16.8-31.1c4.2,0,9.2,0,12.3,0c4.5,9.4,8.7,18.1,13.1,27.3
		c1.9-2.6,3.7-5.1,5.6-7.6l3,1.6c-3.8,5-5.4,11.6-2.8,16.5C345,192.6,350.7,203.2,356.3,213.5z"/>
	<path class="st1" d="M327.6,252c0,10,0,20.3,0,30.7v2c0,13.9,0,25,0,36.6c-3.9,0-8.7,0-13.1,0c0-23.1,0-45.9,0-69.2
		C318.1,252,323,252,327.6,252z"/>
	<path class="st0" d="M325,175.3c3.9,7.5,1.9,12.5-5.6,16.8c-2.3,1.4-4.3,4.2-5.4,6.7c-2,4.6-3.2,9.6-4.7,14.4l-5.2-0.4
		c1.8-23-2.1-46.2,1.6-69.1l2.5,0.4C313.8,154.7,319.5,165,325,175.3z"/>
	<path class="st1" d="M316.9,112c-6.3,10.5-9.7,21.1-11.3,31.8c-3.7,22.8,0.2,46-1.6,69.1c-0.2,2.9-0.5,5.8-0.9,8.7h-7.6
		c0-21.3,0-41.6,0-61.9c-1-0.3-2.1-0.6-3.1-0.9c-1,2.4-2.8,4.7-2.8,7.1c-0.2,14.8-0.1,29.6-0.1,44.5c0,3.6,0,7.3,0,11h-7.9
		c0-5.8,0-11.2,0-16.6c0-12.2-0.2-24.4-0.1-36.7c0.2-18.7-0.1-37.4-11.9-54.2C284.9,119.3,300,120.4,316.9,112z"/>
	<path class="st1" d="M289.3,236.1c0,3.1,0,5.6,0,8h-7.1c-9.4,0-17.1,0-24.9,0c-10.8,0-21.5,0.5-32.3,0.1
		c-18-0.7-35.3,1.2-51.4,11.5c6-15.5,6.3-30.3-0.6-44.9c1.2-0.3,1.9-0.8,2.2-0.6c9.4,5.9,19.4,9,29.8,10.3c7.2,1,14.6,1.2,22.1,0.9
		c5.9-0.1,11.7-0.2,17.6-0.2c11.9,0,24.1,0.1,36.7,0.1h7.9c0,2.7,0,5.4,0,8.3c-18.8,0-36.2,0-53.7,0c-3.8,0-7.6-0.3-11.3,0.2
		c-1.7,0.2-3.1,2.2-4.7,3.4c1.5,1,2.9,2.5,4.4,2.8c3.4,0.4,6.9,0.1,10.4,0.1C252.5,236.1,270.5,236.1,289.3,236.1z"/>
	<path class="st1" d="M270.8,165.1c-5.3,0-10.4,0-15.8,0c0.5-2.1,2-4.7,1.3-6.4c-1.7-4.3-4.4-8.1-6.7-12.1
		c-2.7,3.5-6.5,6.5-7.7,10.4c-5.5,17.8-1.5,35.5,1.6,53.8c12-7.3,15.4-16,11.6-27c5,0,9.9,0,15.2,0c-2.3,12.4-6.2,23.3-19.2,28.2
		c-2.3,0.9-4.4,1.5-6.2,1.5c-2.8,0-5-1.6-6.2-6.5c-0.9-3.8-3.8-7.1-5.9-10.6c-8.3-13.4-7.2-32.4,2.6-44.9c6.1-7.8,14.6-9.7,21.6-6.3
		c3.7,1.8,6.9,5.1,9.3,9.8C267.7,158.3,269.1,161.6,270.8,165.1z"/>
	<path class="st1" d="M267.2,252.2c0,23.1,0,46,0,69.5c-3.8,0-8.8,0-13.3,0c0-22.9,0-45.9,0-69.5
		C258.2,252.2,262.8,252.2,267.2,252.2z"/>
	<path class="st1" d="M261.2,137.1c0,0.7,0.1,1.3,0.1,2c-0.6-0.2-1.3-0.5-1.9-0.7c-6-2.2-12-4.3-17.9-6.8c-3.1-1.4-5.6-4.2-8.7-5.7
		c-7-3.5-13.3-1.2-16,6.3c-1.2,3.3-2.3,5.6-4.7,5.6c-1,0-2.1-0.3-3.6-1.2c3.4-15.2,21.4-20.8,34.3-11.2
		C248.6,129.7,255.1,133.2,261.2,137.1z"/>
	<path class="st0" d="M259.4,138.4l-2.5,6.9c-7-3.5-15.5-1.5-21.6,6.3c-9.8,12.5-10.9,31.5-2.6,44.9c2.1,3.5,5,6.8,5.9,10.6
		c1.2,4.9,3.4,6.5,6.2,6.5v7.6c-5.9,0-11.7,0.1-17.6,0.2c-7.5,0.2-14.9,0-22.1-0.9l0.9-7.4c4.6,0,9.4,0,13.2,0c0-23.5,0-46.4,0-69.2
		c-2.4,0-4.8,0-7.1,0v-6.2c2.4,0,3.6-2.3,4.7-5.6c2.7-7.5,9-9.8,16-6.3c3.1,1.5,5.6,4.3,8.7,5.7
		C247.4,134.1,253.5,136.2,259.4,138.4z"/>
	<path class="st1" d="M244.2,252.5c0,23.1,0,46.1,0,69.6c-4.4,0-9,0-12,0c0-10.8,0.3-21.5-0.3-32.1c-0.1-1.7-3.8-3.7-6.2-4.8
		c-2-1-4.2-1.7-6.4-2.4l0.9-2.8c2.5,1,6.1,1.8,10.9,3c0-10.2,0-20.2,0-30.5C235,252.5,239.7,252.5,244.2,252.5z"/>
	<path class="st1" d="M220.2,280l-0.9,2.8c-1.5-0.5-3-0.9-4.5-1.5c0,13.8,0,26.9,0,40.5c-4.1,0-9.2,0-13.1,0c0-23.1,0-46,0-69.3
		c3.6,0,8.4,0,13.4,0c-0.4,2.9-1.3,6-1.3,9.1C213.5,274.1,213.4,277.5,220.2,280z"/>
	<path class="st1" d="M219.2,143.9c0,22.8,0,45.7,0,69.2c-3.8,0-8.6,0-13.2,0c0-22.8,0-45.9,0-69.2c1.9,0,4,0,6.1,0
		C214.4,143.9,216.8,143.9,219.2,143.9z"/>
</g>
<path class="st1" d="M446.9,286.4c0,33.9-0.1,67.9-0.1,101.8c0,18.6-8.2,33-22.6,44.3c-27.1,21.1-68.2,22-96.7,2.3
	c-33.6-23.4-33.8-66.8,0-89.9c22.3-15.2,46.8-17.5,72.5-10.4c2.8,0.8,5.4,1.7,7.9,2.5c2.6,1,5.4,2.2,6.4,3.2c0.1,0,0.1,0,0.2-0.1
	l6.7-20.9L446.9,286.4z"/>
</svg>
