<?xml version="1.0" encoding="utf-8"?>
<!-- Generator: Adobe Illustrator 25.4.0, SVG Export Plug-In . SVG Version: 6.00 Build 0)  -->
<svg version="1.1" id="Layer_1" xmlns="http://www.w3.org/2000/svg" xmlns:xlink="http://www.w3.org/1999/xlink" x="0px" y="0px"
	 viewBox="0 0 612 792" style="enable-background:new 0 0 612 792;" xml:space="preserve">
<style type="text/css">
	.st0{fill:#800000;}
	.st1{fill:#FFFFFF;}
</style>
<path class="st0" d="M335.3,283c6.2,3.9,12.8,7.2,18.4,11.9c14,11.7,26,25.4,36,40.7c4.7,7.1,7.1,14.7,7,23.5
	c-0.3,43.5-0.1,86.9-0.2,130.4c0,8.7-4.9,15.5-12.5,17.4c-1.4,0.4-3,0.4-4.4,0.4c-48.4,0-96.9,0-145.3,0c-9.3,0-16.3-6.5-17-15.8
	c-0.1-1.6-0.1-3.2-0.1-4.9c0-60.9,0.1-121.8-0.1-182.7c0-9.9,3.3-17.1,12.8-20.8C265,283,300.1,283,335.3,283z M332.5,297
	c-1.7,0-2.8,0-3.9,0c-30.9,0-61.8,0-92.7,0c-5.3,0-5.9,0.7-5.9,6.1c0,61.4,0,122.8,0,184.2c0,5.2,0.7,5.9,5.8,5.9
	c47.5,0,94.9,0,142.4,0c5.1,0,5.7-0.7,5.8-5.9c0-43.5,0-86.9,0-130.4c0-1.2,0-2.4,0-3.8c-1.9,0-3.3,0-4.7,0c-12.7,0-25.4,0-38.1,0
	c-6.2,0-8.5-2.3-8.5-8.6c0-12.7,0-25.4,0-38.1C332.5,303.4,332.5,300.5,332.5,297z M345.7,305.7c0,11.5,0,22.4,0,33.1
	c10.2,0,19.9,0,30.2,0C367,326.5,357.2,315.7,345.7,305.7z"/>
<path class="st1" d="M345.7,305.7c11.5,10,21.2,20.8,30.2,33.1c-10.3,0-20,0-30.2,0C345.7,328.1,345.7,317.2,345.7,305.7z"/>
<path class="st0" d="M345.1,425.3c0-9.5,0-18.8,0-28.6c-17.1,3.7-33.9,7.4-51.1,11.1c0,1.5,0,2.8,0,4.2c0,14.2,0,28.4,0,42.6
	c0,13-6.3,21.2-19,23.8c-8.9,1.9-17.4,0.5-24.7-5.4c-10-8-10.1-21.6-0.1-29.6c7.7-6.2,16.6-7.6,26.1-5.2c0.7,0.2,1.4,0.4,2.1,0.6
	c0.7,0.2,1.4,0.4,2.6,0.8c0.1-1.5,0.2-2.8,0.2-4.1c0-15.2,0-30.4,0-45.6c0-6.2,1.3-7.8,7.4-9.2c19.9-4.4,39.8-8.8,59.7-13.1
	c6.4-1.4,9.6,1.1,9.6,7.7c0.1,22.8,0,45.6,0,68.4c0,6.6-2.9,11.7-8,15.7c-9.6,7.5-24.2,7.8-34.3,0.8c-11.9-8.3-12-23.7,0-31.9
	c7.9-5.4,16.6-6.2,25.7-3.7c1,0.3,1.9,0.6,2.8,0.9C344.5,425.4,344.6,425.4,345.1,425.3z"/>
</svg>
